<svg width="44" height="44" viewBox="0 0 44 44" fill="none" xmlns="http://www.w3.org/2000/svg">
<g clip-path="url(#clip0_100_61)">
<path d="M21.6333 19.9833C17.4717 18.9017 16.1333 17.7833 16.1333 16.0417C16.1333 14.0433 17.985 12.65 21.0833 12.65C24.3467 12.65 25.5567 14.2083 25.6667 16.5H29.7183C29.59 13.3467 27.665 10.45 23.8333 9.515V5.5H18.3333V9.46C14.7767 10.23 11.9167 12.54 11.9167 16.0783C11.9167 20.3133 15.4183 22.4217 20.5333 23.65C25.1167 24.75 26.0333 26.3633 26.0333 28.0683C26.0333 29.3333 25.135 31.35 21.0833 31.35C17.3067 31.35 15.8217 29.6633 15.62 27.5H11.5867C11.8067 31.515 14.8133 33.77 18.3333 34.5217V38.5H23.8333V34.5583C27.4083 33.88 30.25 31.8083 30.25 28.05C30.25 22.8433 25.795 21.065 21.6333 19.9833Z" fill="#2F2F2F"/>
</g>
<defs>
<clipPath id="clip0_100_61">
<rect width="44" height="44" fill="white"/>
</clipPath>
</defs>
</svg>
