<svg width="40" height="40" viewBox="0 0 40 40" fill="none" xmlns="http://www.w3.org/2000/svg">
<path d="M9.11111 34C8.25556 34 7.52289 33.6956 6.91311 33.0869C6.30437 32.4771 6 31.7444 6 30.8889V9.11111C6 8.25556 6.30437 7.52289 6.91311 6.91311C7.52289 6.30437 8.25556 6 9.11111 6H30.8889C31.7444 6 32.4771 6.30437 33.0869 6.91311C33.6956 7.52289 34 8.25556 34 9.11111V30.8889C34 31.7444 33.6956 32.4771 33.0869 33.0869C32.4771 33.6956 31.7444 34 30.8889 34H9.11111ZM13.7778 27.7778C14.2185 27.7778 14.5882 27.6284 14.8869 27.3298C15.1845 27.0321 15.3333 26.663 15.3333 26.2222C15.3333 25.7815 15.1845 25.4118 14.8869 25.1131C14.5882 24.8155 14.2185 24.6667 13.7778 24.6667C13.337 24.6667 12.9673 24.8155 12.6687 25.1131C12.371 25.4118 12.2222 25.7815 12.2222 26.2222C12.2222 26.663 12.371 27.0321 12.6687 27.3298C12.9673 27.6284 13.337 27.7778 13.7778 27.7778ZM13.7778 21.5556C14.2185 21.5556 14.5882 21.4062 14.8869 21.1076C15.1845 20.8099 15.3333 20.4407 15.3333 20C15.3333 19.5593 15.1845 19.1896 14.8869 18.8909C14.5882 18.5933 14.2185 18.4444 13.7778 18.4444C13.337 18.4444 12.9673 18.5933 12.6687 18.8909C12.371 19.1896 12.2222 19.5593 12.2222 20C12.2222 20.4407 12.371 20.8099 12.6687 21.1076C12.9673 21.4062 13.337 21.5556 13.7778 21.5556ZM13.7778 15.3333C14.2185 15.3333 14.5882 15.184 14.8869 14.8853C15.1845 14.5877 15.3333 14.2185 15.3333 13.7778C15.3333 13.337 15.1845 12.9673 14.8869 12.6687C14.5882 12.371 14.2185 12.2222 13.7778 12.2222C13.337 12.2222 12.9673 12.371 12.6687 12.6687C12.371 12.9673 12.2222 13.337 12.2222 13.7778C12.2222 14.2185 12.371 14.5877 12.6687 14.8853C12.9673 15.184 13.337 15.3333 13.7778 15.3333ZM20 27.7778H26.2222C26.663 27.7778 27.0321 27.6284 27.3298 27.3298C27.6284 27.0321 27.7778 26.663 27.7778 26.2222C27.7778 25.7815 27.6284 25.4118 27.3298 25.1131C27.0321 24.8155 26.663 24.6667 26.2222 24.6667H20C19.5593 24.6667 19.1901 24.8155 18.8924 25.1131C18.5938 25.4118 18.4444 25.7815 18.4444 26.2222C18.4444 26.663 18.5938 27.0321 18.8924 27.3298C19.1901 27.6284 19.5593 27.7778 20 27.7778ZM20 21.5556H26.2222C26.663 21.5556 27.0321 21.4062 27.3298 21.1076C27.6284 20.8099 27.7778 20.4407 27.7778 20C27.7778 19.5593 27.6284 19.1896 27.3298 18.8909C27.0321 18.5933 26.663 18.4444 26.2222 18.4444H20C19.5593 18.4444 19.1901 18.5933 18.8924 18.8909C18.5938 19.1896 18.4444 19.5593 18.4444 20C18.4444 20.4407 18.5938 20.8099 18.8924 21.1076C19.1901 21.4062 19.5593 21.5556 20 21.5556ZM20 15.3333H26.2222C26.663 15.3333 27.0321 15.184 27.3298 14.8853C27.6284 14.5877 27.7778 14.2185 27.7778 13.7778C27.7778 13.337 27.6284 12.9673 27.3298 12.6687C27.0321 12.371 26.663 12.2222 26.2222 12.2222H20C19.5593 12.2222 19.1901 12.371 18.8924 12.6687C18.5938 12.9673 18.4444 13.337 18.4444 13.7778C18.4444 14.2185 18.5938 14.5877 18.8924 14.8853C19.1901 15.184 19.5593 15.3333 20 15.3333Z" fill="#2F2F2F"/>
</svg>
